<svg width="58" height="46" xmlns="http://www.w3.org/2000/svg" xmlns:xlink="http://www.w3.org/1999/xlink" overflow="hidden"><defs><clipPath id="clip0"><path d="M735 813 793 813 793 859 735 859Z" fill-rule="evenodd" clip-rule="evenodd"/></clipPath></defs><g clip-path="url(#clip0)" transform="translate(-735 -813)"><path d="M753.788 837.389C760.496 864.051 754.554 851.796 754.938 859L740 837 753.788 837.389Z" fill="#B77165" fill-rule="evenodd"/><path d="M3.40123 21.6109C-3.70144-5.05124 2.58939 7.20357 2.18347 0L18 22 3.40123 21.6109Z" fill="#B77165" fill-rule="evenodd" transform="matrix(1 0 0 -1 772 859)"/><path d="M758 830 764 819 770 830Z" fill="#B77165" fill-rule="evenodd"/><path d="M777 830.212 782.859 818 793 831 777 830.212Z" fill="#B77165" fill-rule="evenodd"/><path d="M736 831 745.302 818 752 831 736 831Z" fill="#B77165" fill-rule="evenodd"/><path d="M0 11 6 0 12 11Z" fill="#B77165" fill-rule="evenodd" transform="matrix(1 0 0 -1 767 825)"/><path d="M0 11 6.5 0 13 11Z" fill="#B77165" fill-rule="evenodd" transform="matrix(1 0 0 -1 749 825)"/><path d="M0 22 6.56711 0 12 22 0 22Z" fill="#B77165" fill-rule="evenodd" transform="matrix(1 0 0 -1 758 858)"/></g></svg>